<?xml version="1.0" encoding="utf-8"?>
<!-- Generator: Adobe Illustrator 16.0.0, SVG Export Plug-In . SVG Version: 6.00 Build 0)  -->
<!DOCTYPE svg PUBLIC "-//W3C//DTD SVG 1.1//EN" "http://www.w3.org/Graphics/SVG/1.1/DTD/svg11.dtd">
<svg version="1.1" xmlns="http://www.w3.org/2000/svg" xmlns:xlink="http://www.w3.org/1999/xlink" x="0px" y="0px" width="35px"
	 height="25px" viewBox="0 0 35 25" enable-background="new 0 0 35 25" xml:space="preserve">
<g id="Layer_1">
	<g>
		<rect x="-3496.52" y="50" fill="#FFFFFF" width="16.395" height="20"/>
		<rect x="-3479.875" y="50" fill="#666666" width="16.395" height="20"/>
		<g>
			<g>
				<line fill="none" stroke="#FFFFFF" stroke-width="3" x1="-3480.5" y1="59" x2="-3474.5" y2="59"/>
				<g>
					<polygon fill="#FFFFFF" points="-3476.5,62.919 -3469.65,58.964 -3476.5,55.009 					"/>
				</g>
			</g>
		</g>
		<g>
			<line fill="#FFFFFF" x1="-3479.5" y1="62.5" x2="-3491.5" y2="62.5"/>
			<g>
				<line fill="none" stroke="#666666" stroke-width="3" x1="-3479.5" y1="62" x2="-3485.5" y2="62"/>
				<g>
					<polygon fill="#666666" points="-3484.5,58.203 -3491.35,62.158 -3484.5,66.113 					"/>
				</g>
			</g>
		</g>
	</g>
	<g>
		<path fill="#FFFFFF" d="M-3595,61.877v-3.754l-2.867-0.479c-0.117-0.354-0.258-0.695-0.424-1.025l1.689-2.363l-2.654-2.654
			l-2.361,1.686c-0.33-0.168-0.674-0.311-1.029-0.428l-0.477-2.859h-3.754l-0.477,2.859c-0.357,0.117-0.701,0.26-1.031,0.428
			l-2.359-1.686l-2.654,2.654l1.688,2.363c-0.164,0.33-0.307,0.672-0.424,1.025l-2.865,0.479v3.754l2.873,0.479
			c0.117,0.352,0.258,0.689,0.422,1.016l-1.693,2.373l2.654,2.652l2.375-1.697c0.324,0.164,0.662,0.305,1.012,0.42l0.48,2.881h3.754
			l0.479-2.881c0.35-0.115,0.688-0.256,1.012-0.42l2.377,1.697l2.652-2.652l-1.693-2.373c0.164-0.326,0.307-0.664,0.422-1.016
			l2.873-0.479H-3595z M-3605,62.5c-1.381,0-2.5-1.119-2.5-2.5s1.119-2.5,2.5-2.5s2.5,1.119,2.5,2.5S-3603.619,62.5-3605,62.5z"/>
	</g>
	<polyline fill="#1A1A1A" points="-3324.784,50.565 -3345.001,69.435 -3365.216,50.565 	"/>
	<g>
		<g>
			<path fill="#FFFFFF" d="M-3854.505,70l-3.662-3.664l3.434-3.436l-3.207-3.205l-3.434,3.434l-3.664-3.662V70H-3854.505z"/>
		</g>
		<g>
			<path fill="#FFFFFF" d="M-3855.497,50l3.664,3.664l-3.436,3.436l3.209,3.205l3.434-3.435l3.664,3.663V50H-3855.497z"/>
		</g>
	</g>
	<g>
		<path fill="#FFFFFF" d="M-3723.76,67.133c-0.275,0-0.549-0.105-0.758-0.314c-0.42-0.418-0.42-1.097,0-1.516
			c2.924-2.924,2.924-7.682,0-10.605c-0.42-0.419-0.42-1.098,0-1.516c0.418-0.419,1.098-0.418,1.514,0
			c1.822,1.82,2.824,4.243,2.824,6.818c0,2.576-1.002,4.998-2.824,6.818C-3723.211,67.027-3723.486,67.133-3723.76,67.133
			L-3723.76,67.133L-3723.76,67.133z M-3727.566,65.112c-0.273,0-0.549-0.104-0.758-0.313c-0.418-0.419-0.418-1.098,0-1.516
			c1.811-1.811,1.811-4.756,0-6.566c-0.418-0.418-0.418-1.097,0-1.515c0.418-0.419,1.098-0.419,1.516,0
			c2.645,2.646,2.645,6.95,0,9.597C-3727.018,65.008-3727.293,65.111-3727.566,65.112L-3727.566,65.112z"/>
		<path fill="#FFFFFF" d="M-3730.535,70c-0.188,0-0.369-0.072-0.506-0.209l-5.506-5.506h-2.561c-0.395,0-0.715-0.318-0.715-0.714
			v-7.143c0-0.396,0.32-0.714,0.715-0.714h2.561l5.506-5.506c0.203-0.204,0.512-0.266,0.779-0.154
			c0.266,0.11,0.439,0.371,0.439,0.66v18.57c0,0.289-0.174,0.551-0.439,0.66C-3730.352,69.982-3730.443,70-3730.535,70z"/>
	</g>
	<g>
		<g>
			<g>
				<path d="M-2310.715,29.286h23.316c-0.505-0.811-1.111-1.708-1.844-2.705c-2.227-3.042-5.338-6.599-8.753-10.014
					c-3.418-3.415-6.975-6.525-10.018-8.758c-0.994-0.73-1.892-1.337-2.702-1.84v23.314V29.286z"/>
				<path d="M-2317.144,32.501V3.572h-49.821c-4.432,0-8.035,3.604-8.035,8.035v86.785c0,4.432,3.604,8.035,8.035,8.035h73.929
					c4.432,0,8.036-3.604,8.036-8.035V35.715h-28.929C-2315.704,35.715-2317.144,34.276-2317.144,32.501z"/>
			</g>
			<g>
				<path fill="#FFFFFF" d="M-2328.062,44.242V34.107l15.671,15.67l-15.671,15.67V55.089c-18.227-0.428-17.444,12.396-12.807,20.804
					C-2352.323,63.512-2349.89,43.674-2328.062,44.242z"/>
			</g>
		</g>
		<text transform="matrix(1 0 0 1 -2355.8301 95.4238)" fill="#FFFFFF" font-family="'Helvetica'" font-size="11.7179">Transcript</text>
	</g>
	<polyline fill="#1A1A1A" points="-3220.216,69.435 -3199.999,50.565 -3179.784,69.435 	"/>
	<polyline fill="#777777" points="-2919.48,39.784 -2900.52,60.001 -2919.48,80.216 	"/>
	<polyline fill="#777777" points="-3045.521,39.783 -3064.479,60 -3045.521,80.217 	"/>
	<g>
		<rect x="-2814.654" y="37.569" fill="#00274C" width="59.309" height="11.405"/>
		<rect x="-2814.654" y="54.297" fill="#00274C" width="59.309" height="11.405"/>
		<rect x="-2814.654" y="71.025" fill="#00274C" width="59.309" height="11.405"/>
	</g>
	<polygon fill="#333333" points="-2484.999,68.5 -2470,55 -2484.999,41.5 -2455.001,54.999 	"/>
	<polygon fill="#333333" points="-2595.001,73.5 -2610,60 -2595.001,46.5 -2624.999,59.999 	"/>
	<g>
		<g>
			<g>
				<path d="M-2115.715,29.286h23.316c-0.505-0.811-1.111-1.708-1.844-2.705c-2.227-3.042-5.338-6.599-8.753-10.014
					c-3.418-3.415-6.975-6.525-10.018-8.758c-0.994-0.73-1.892-1.337-2.702-1.84v23.314V29.286z"/>
				<path d="M-2122.144,32.501V3.572h-49.821c-4.432,0-8.035,3.604-8.035,8.035v86.785c0,4.432,3.604,8.035,8.035,8.035h73.929
					c4.432,0,8.036-3.604,8.036-8.035V35.715h-28.929C-2120.704,35.715-2122.144,34.276-2122.144,32.501z"/>
			</g>
			<g>
				<path fill="#FFFFFF" d="M-2133.062,44.242V34.107l15.671,15.67l-15.671,15.67V55.089c-18.227-0.428-17.444,12.396-12.807,20.804
					C-2157.323,63.512-2154.89,43.674-2133.062,44.242z"/>
			</g>
		</g>
		<text transform="matrix(1 0 0 1 -2157.1514 95.4238)" fill="#FFFFFF" font-family="'Helvetica'" font-size="11.7179">Handout</text>
	</g>
	<g>
		<g>
			<g>
				<path d="M-1920.715,29.286h23.316c-0.505-0.811-1.111-1.708-1.844-2.705c-2.227-3.042-5.338-6.599-8.753-10.014
					c-3.418-3.415-6.975-6.525-10.018-8.758c-0.994-0.73-1.892-1.337-2.702-1.84v23.314V29.286z"/>
				<path d="M-1927.144,32.501V3.572h-49.821c-4.432,0-8.035,3.604-8.035,8.035v86.785c0,4.432,3.604,8.035,8.035,8.035h73.929
					c4.432,0,8.036-3.604,8.036-8.035V35.715h-28.929C-1925.704,35.715-1927.144,34.276-1927.144,32.501z"/>
			</g>
			<g>
				<path fill="#FFFFFF" d="M-1938.062,44.242V34.107l15.671,15.67l-15.671,15.67V55.089c-18.227-0.428-17.444,12.396-12.807,20.804
					C-1962.323,63.512-1959.89,43.674-1938.062,44.242z"/>
			</g>
		</g>
		<text transform="matrix(1 0 0 1 -1969.959 95.4238)" fill="#FFFFFF" font-family="'Helvetica'" font-size="11.7179">Math Notes</text>
	</g>
	<g>
		<g>
			<g>
				<path d="M-1725.715,28.62h23.316c-0.505-0.811-1.111-1.708-1.844-2.705c-2.227-3.042-5.338-6.599-8.753-10.014
					c-3.418-3.415-6.975-6.525-10.018-8.758c-0.994-0.73-1.892-1.337-2.702-1.84v23.314V28.62z"/>
				<path d="M-1732.144,31.835V2.906h-49.821c-4.432,0-8.035,3.604-8.035,8.035v86.785c0,4.432,3.604,8.035,8.035,8.035h73.929
					c4.432,0,8.036-3.604,8.036-8.035V35.049h-28.929C-1730.704,35.049-1732.144,33.61-1732.144,31.835z"/>
			</g>
			<g>
				<path fill="#FFFFFF" d="M-1743.062,43.576V33.441l15.671,15.67l-15.671,15.67V54.423c-18.227-0.428-17.444,12.396-12.807,20.804
					C-1767.323,62.846-1764.89,43.008-1743.062,43.576z"/>
			</g>
		</g>
		<text transform="matrix(1 0 0 1 -1763.5547 94.7578)" fill="#FFFFFF" font-family="'Helvetica'" font-size="11.7179">Activity</text>
	</g>
	<g>
		<circle fill="#303030" cx="-995" cy="47.5" r="38"/>
		<polyline fill="none" stroke="#05D500" stroke-width="10.145" stroke-miterlimit="10" points="-973.479,33.152 -1002.174,61.847 
			-1016.521,47.499 		"/>
	</g>
	<g>
		<rect x="-606" y="28.125" fill="#FFFFFF" stroke="#000000" stroke-width="1.55" width="62" height="38.75"/>
		<rect x="-578.1" y="43.539" fill="#FFFFFF" stroke="#000000" stroke-width="0.775" width="31" height="19.375"/>
	</g>
	<rect x="-396" y="28.125" fill="#FFFFFF" stroke="#000000" stroke-width="2" width="62" height="38.75"/>
	<g>
		<path fill="#FFFFFF" d="M-155.029,26.516c-5.748,0-10.809,2.127-14.719,6.094c-4.023,4.082-6.207,9.371-6.207,14.891
			c0,5.576,2.125,10.75,6.15,14.775s9.256,6.209,14.775,6.209s10.865-2.186,15.006-6.268c3.91-3.852,5.979-8.968,5.979-14.717
			c0-5.691-2.068-10.865-6.035-14.834C-144.105,28.643-149.279,26.516-155.029,26.516L-155.029,26.516z M-154.973,30.311
			c4.715,0,8.912,1.781,12.189,5.059c3.219,3.22,4.943,7.474,4.943,12.131c0,4.715-1.666,8.854-4.885,12.016
			c-3.393,3.334-7.762,5.117-12.246,5.117c-4.541,0-8.797-1.783-12.074-5.06s-5.117-7.589-5.117-12.073
			c0-4.543,1.84-8.854,5.117-12.189c3.221-3.276,7.359-5.001,12.074-5.001L-154.973,30.311z M-155.242,44.014
			c-1.186-2.162-3.207-3.021-5.555-3.021c-3.418,0-6.139,2.417-6.139,6.508c0,4.161,2.559,6.509,6.254,6.509
			c2.371,0,4.395-1.302,5.51-3.277l-2.604-1.325c-0.582,1.395-1.465,1.812-2.58,1.812c-1.93,0-2.812-1.604-2.812-3.719
			s0.742-3.719,2.812-3.719c0.557,0,1.674,0.303,2.324,1.697L-155.242,44.014z M-143.137,44.014
			c-1.186-2.162-3.207-3.021-5.555-3.021c-3.418,0-6.137,2.417-6.137,6.508c0,4.161,2.557,6.509,6.254,6.509
			c2.369,0,4.393-1.302,5.508-3.277l-2.604-1.325c-0.582,1.395-1.465,1.812-2.58,1.812c-1.93,0-2.812-1.604-2.812-3.719
			s0.744-3.719,2.812-3.719c0.559,0,1.674,0.303,2.324,1.697L-143.137,44.014z"/>
	</g>
	<g>
		<rect x="-816.247" y="28.125" fill="#FFFFFF" stroke="#000000" stroke-width="1.55" width="62" height="38.75"/>
		<line fill="none" stroke="#000000" x1="-816.5" y1="47" x2="-753.5" y2="47"/>
	</g>
	<g>
		<path fill="#FFFFFF" d="M26.084,3.916v17.168h-2.861v-7.869l-7.152,7.153v-7.153l-7.154,7.153V4.631l7.154,7.154V4.631
			l7.152,7.154V3.916H26.084z"/>
	</g>
</g>
<g id="Layer_2">
	<g>
		
			<rect x="-1388.316" y="6.906" fill="#FFFFFF" stroke="#000000" stroke-width="0.8822" stroke-miterlimit="10" width="96.633" height="81.188"/>
		
			<line fill="#FFFFFF" stroke="#000000" stroke-width="0.8822" stroke-miterlimit="10" x1="-1388.316" y1="61.019" x2="-1291.684" y2="61.019"/>
		
			<line fill="#FFFFFF" stroke="#000000" stroke-width="0.8822" stroke-miterlimit="10" x1="-1388.316" y1="33.981" x2="-1291.684" y2="33.981"/>
		
			<line fill="#FFFFFF" stroke="#000000" stroke-width="0.8822" stroke-miterlimit="10" x1="-1323.887" y1="6.906" x2="-1323.887" y2="88.094"/>
		
			<line fill="#FFFFFF" stroke="#000000" stroke-width="0.8822" stroke-miterlimit="10" x1="-1356.113" y1="6.906" x2="-1356.113" y2="88.094"/>
	</g>
	<g>
		<rect x="-1586.5" y="22.5" fill="#FFFFFF" stroke="#333333" stroke-width="2" stroke-miterlimit="10" width="84" height="54"/>
		<rect x="-1592.5" y="28.5" fill="#FFFFFF" stroke="#333333" stroke-width="2" stroke-miterlimit="10" width="84" height="54"/>
		<rect x="-1598.5" y="34.5" fill="#FFFFFF" stroke="#333333" stroke-width="2" stroke-miterlimit="10" width="84" height="54"/>
	</g>
</g>
</svg>
